<?xml version="1.0" encoding="utf-8"?>
<!-- Generator: Adobe Illustrator 24.1.0, SVG Export Plug-In . SVG Version: 6.00 Build 0)  -->
<svg version="1.1" id="レイヤー_1" xmlns="http://www.w3.org/2000/svg" xmlns:xlink="http://www.w3.org/1999/xlink" x="0px"
	 y="0px" viewBox="0 0 338 213" style="enable-background:new 0 0 338 213;" xml:space="preserve">
<g>
	<path d="M27.28,29.19h13.36l15.92,38.56l16.56-38.56h13.36v56h-12.8v-24.8l-10.64,24.8H49.92l-9.84-23.84v23.84h-12.8V29.19z"/>
	<path d="M116.16,29.19H130l23.2,56h-13.84l-3.6-8.8h-25.28l-3.68,8.8H92.88L116.16,29.19z M130.4,63.59l-7.28-17.68l-7.36,17.68
		H130.4z"/>
	<path d="M175.6,41.99h-20v-12.8h52.8v12.8h-20v43.2h-12.8V41.99z"/>
	<path d="M215.6,29.19h44v12.8h-31.2v9.2h26.4v12h-26.4v9.2h31.2v12.8h-44V29.19z"/>
	<path d="M265.19,71.51l12.4-3.04c0.32,1.2,5.12,4.72,12.56,4.72c5.84,0,10.32-2.56,10.32-5.44c0-2-1.6-2.64-12-5.52
		c-7.92-2.08-21.52-4.96-21.52-17.04c0-11.04,11.68-16.8,23.2-16.8c11.44,0,21.04,6.16,22.88,14.64l-12.48,2.72
		c-0.4-1.68-4.16-6.16-10.4-6.16c-5.76,0-10.24,2.56-10.24,5.44c0,2,1.52,2.64,11.92,5.52c7.92,2.08,23.12,5.76,23.12,17.84
		c0,5.84-3.36,10.8-9.44,14.08c-4.24,2.24-9.84,3.52-15.36,3.52C279.75,85.99,267.51,80.95,265.19,71.51z"/>
	<path d="M43.28,141.99h-20v-12.8h52.8v12.8h-20v43.2h-12.8V141.99z"/>
	<path d="M81.2,157.19c0-15.92,12.88-28.8,28.8-28.8s28.8,12.88,28.8,28.8s-12.88,28.8-28.8,28.8S81.2,173.11,81.2,157.19z
		 M126,157.19c0-8.8-7.2-16-16-16s-16,7.2-16,16s7.2,16,16,16S126,165.99,126,157.19z"/>
	<path d="M147.92,129.19h12.8v22.32l19.84-22.32h17.2l-21.04,23.52l24.4,32.48h-16l-17.04-22.72l-7.36,8.24v14.48h-12.8V129.19z"/>
	<path d="M227.28,164.71l-23.76-35.52h15.44l14.72,22.08l14.72-22.08h15.36l-23.68,35.52v20.48h-12.8V164.71z"/>
	<path d="M268.08,157.19c0-15.92,12.88-28.8,28.8-28.8s28.8,12.88,28.8,28.8s-12.88,28.8-28.8,28.8S268.08,173.11,268.08,157.19z
		 M312.88,157.19c0-8.8-7.2-16-16-16s-16,7.2-16,16s7.2,16,16,16S312.88,165.99,312.88,157.19z"/>
</g>
</svg>
