<?xml version="1.0" encoding="utf-8"?>
<!-- Generator: Adobe Illustrator 24.1.0, SVG Export Plug-In . SVG Version: 6.00 Build 0)  -->
<svg version="1.1" id="レイヤー_1" xmlns="http://www.w3.org/2000/svg" xmlns:xlink="http://www.w3.org/1999/xlink" x="0px"
	 y="0px" viewBox="0 0 485.89 98.15" style="enable-background:new 0 0 485.89 98.15;" xml:space="preserve">
<g>
	<path d="M19.94,27.47h9.18l10.94,26.51l11.38-26.51h9.18v38.5h-8.8V48.91l-7.31,17.05H35.5l-6.76-16.39v16.39h-8.8V27.47z"/>
	<path d="M81.04,27.47h9.51l15.95,38.5h-9.51l-2.47-6.05H77.14l-2.53,6.05h-9.57L81.04,27.47z M90.83,51.11l-5-12.15l-5.06,12.15
		H90.83z"/>
	<path d="M121.91,36.27h-13.75v-8.8h36.29v8.8h-13.75v29.7h-8.8V36.27z"/>
	<path d="M149.41,27.47h30.25v8.8h-21.45v6.32h18.15v8.25h-18.15v6.32h21.45v8.8h-30.25V27.47z"/>
	<path d="M183.51,56.56l8.52-2.09c0.22,0.83,3.52,3.24,8.63,3.24c4.01,0,7.09-1.76,7.09-3.74c0-1.38-1.1-1.81-8.25-3.79
		c-5.44-1.43-14.79-3.41-14.79-11.71c0-7.59,8.03-11.55,15.95-11.55c7.86,0,14.46,4.23,15.73,10.06l-8.58,1.87
		c-0.27-1.15-2.86-4.23-7.15-4.23c-3.96,0-7.04,1.76-7.04,3.74c0,1.38,1.04,1.81,8.19,3.79c5.44,1.43,15.89,3.96,15.89,12.26
		c0,4.01-2.31,7.42-6.49,9.68c-2.92,1.54-6.76,2.42-10.56,2.42C193.52,66.51,185.11,63.05,183.51,56.56z"/>
	<path d="M272.17,36.27h-13.75v-8.8h36.3v8.8h-13.75v29.7h-8.8V36.27z"/>
	<path d="M298.24,46.71c0-10.94,8.85-19.8,19.8-19.8c10.94,0,19.8,8.85,19.8,19.8c0,10.94-8.85,19.8-19.8,19.8
		C307.09,66.51,298.24,57.66,298.24,46.71z M329.03,46.71c0-6.05-4.95-11-11-11c-6.05,0-11,4.95-11,11s4.95,11,11,11
		C324.09,57.71,329.03,52.76,329.03,46.71z"/>
	<path d="M344.11,27.47h8.8v15.34l13.64-15.34h11.82L363.9,43.63l16.77,22.33h-11l-11.71-15.62l-5.06,5.66v9.95h-8.8V27.47z"/>
	<path d="M398.67,51.88l-16.33-24.42h10.61l10.12,15.18l10.12-15.18h10.56l-16.28,24.42v14.08h-8.8V51.88z"/>
	<path d="M426.72,46.71c0-10.94,8.85-19.8,19.8-19.8s19.8,8.85,19.8,19.8c0,10.94-8.85,19.8-19.8,19.8S426.72,57.66,426.72,46.71z
		 M457.51,46.71c0-6.05-4.95-11-11-11c-6.05,0-11,4.95-11,11s4.95,11,11,11C452.56,57.71,457.51,52.76,457.51,46.71z"/>
</g>
</svg>
